<svg width="31" height="31" viewBox="0 0 31 31" fill="none" xmlns="http://www.w3.org/2000/svg">
<path d="M19.7925 7.02314C21.1972 7.02314 22.3464 5.8739 22.3464 4.46927C22.3464 3.06463 21.1972 1.91539 19.7925 1.91539C18.3879 1.91539 17.2387 3.06463 17.2387 4.46927C17.2387 5.8739 18.3879 7.02314 19.7925 7.02314ZM6.38469 15.3232C2.80926 15.3232 0 18.1325 0 21.7079C0 25.2834 2.80926 28.0926 6.38469 28.0926C9.96012 28.0926 12.7694 25.2834 12.7694 21.7079C12.7694 18.1325 9.96012 15.3232 6.38469 15.3232ZM6.38469 26.1772C3.95851 26.1772 1.91541 24.1341 1.91541 21.7079C1.91541 19.2818 3.95851 17.2387 6.38469 17.2387C8.81088 17.2387 10.854 19.2818 10.854 21.7079C10.854 24.1341 8.81088 26.1772 6.38469 26.1772ZM13.7909 13.4078L16.8556 10.3432L17.8771 11.3647C19.5372 13.0248 21.708 14.0463 24.3895 14.0463V11.4924C22.4741 11.4924 20.9418 10.7263 19.7925 9.57702L17.3664 7.15084C16.7279 6.64006 16.0894 6.38468 15.3233 6.38468C14.5571 6.38468 13.9186 6.64006 13.5355 7.15084L9.96012 10.7263C9.44935 11.237 9.19396 11.8755 9.19396 12.514C9.19396 13.2801 9.44935 13.9186 9.96012 14.3017L14.0463 17.8771V24.2618H16.6002V16.3448L13.7909 13.4078ZM24.2618 15.3232C20.6864 15.3232 17.8771 18.1325 17.8771 21.7079C17.8771 25.2834 20.6864 28.0926 24.2618 28.0926C27.8373 28.0926 30.6465 25.2834 30.6465 21.7079C30.6465 18.1325 27.8373 15.3232 24.2618 15.3232ZM24.2618 26.1772C21.8356 26.1772 19.7925 24.1341 19.7925 21.7079C19.7925 19.2818 21.8356 17.2387 24.2618 17.2387C26.688 17.2387 28.7311 19.2818 28.7311 21.7079C28.7311 24.1341 26.688 26.1772 24.2618 26.1772Z" fill="#405E57"/>
</svg>
