<?xml version="1.0" standalone="no"?>
<!DOCTYPE svg PUBLIC "-//W3C//DTD SVG 20010904//EN"
 "http://www.w3.org/TR/2001/REC-SVG-20010904/DTD/svg10.dtd">
<svg version="1.0" xmlns="http://www.w3.org/2000/svg"
 width="512.000000pt" height="512.000000pt" viewBox="0 0 512.000000 512.000000"
 preserveAspectRatio="xMidYMid meet">

<g transform="translate(0.000000,512.000000) scale(0.100000,-0.100000)"
fill="#000000" stroke="none">
<path d="M2625 4791 c-11 -5 -29 -19 -40 -31 -18 -20 -20 -39 -23 -214 -3
-163 -1 -196 13 -222 33 -61 117 -74 166 -25 l29 29 0 196 c0 130 -4 204 -12
221 -20 45 -82 66 -133 46z"/>
<path d="M2094 4580 c-37 -15 -64 -59 -64 -103 0 -39 6 -47 138 -179 121 -121
142 -138 171 -138 68 0 110 42 111 109 0 43 -3 47 -122 169 -141 142 -178 165
-234 142z"/>
<path d="M3155 4574 c-37 -19 -241 -219 -261 -256 -24 -46 -18 -86 20 -124 44
-44 87 -46 142 -5 73 53 241 235 248 269 10 43 -17 96 -59 116 -41 20 -52 20
-90 0z"/>
<path d="M1150 4362 c-32 -16 -50 -52 -292 -567 -142 -302 -269 -579 -282
-615 -82 -225 -43 -479 107 -700 41 -60 159 -182 227 -234 69 -53 178 -117
250 -147 30 -12 56 -23 58 -25 4 -2 -227 -866 -233 -872 -3 -3 -74 13 -158 35
-132 35 -158 39 -187 29 -62 -20 -91 -93 -60 -151 17 -32 40 -42 162 -76 513
-139 702 -189 719 -189 29 0 75 29 90 56 15 28 14 80 -1 109 -18 34 -55 50
-211 90 l-147 38 29 106 c16 58 68 252 116 430 l88 325 200 1 c171 1 212 5
285 24 183 47 370 161 476 289 53 64 144 228 144 259 0 8 5 11 10 8 6 -3 10
-25 10 -48 0 -73 29 -239 56 -320 114 -342 541 -577 976 -536 56 5 104 6 108
2 4 -4 46 -154 95 -333 48 -179 100 -371 115 -426 l28 -102 -164 -42 c-177
-46 -206 -63 -218 -121 -9 -45 18 -94 62 -115 35 -17 39 -16 182 19 274 69
704 188 719 200 47 36 56 105 20 151 -37 46 -68 47 -237 3 -84 -22 -154 -38
-157 -35 -13 13 -235 863 -226 866 6 2 51 23 101 48 322 156 532 426 571 735
14 104 1 215 -37 318 -13 36 -139 313 -281 615 -278 591 -279 592 -351 588
-20 -1 -311 -76 -647 -166 -335 -90 -611 -162 -613 -161 -1 1 2 44 7 95 11
104 1 147 -41 173 -19 12 -1399 387 -1425 387 -4 0 -24 -8 -43 -18z m703 -381
c323 -87 589 -160 591 -162 4 -6 -101 -1117 -109 -1154 -19 -80 -78 -179 -149
-249 -85 -84 -156 -128 -268 -167 -458 -157 -1039 121 -1154 553 -16 62 -18
184 -3 248 11 47 491 1091 502 1090 1 0 266 -72 590 -159z m2247 -666 c129
-278 243 -531 253 -562 42 -131 16 -303 -65 -441 -49 -83 -189 -218 -286 -276
-98 -58 -237 -112 -339 -132 -97 -18 -273 -18 -363 1 -194 41 -372 158 -456
301 -56 95 -62 133 -114 694 -28 294 -51 551 -52 570 l-3 35 580 157 c319 86
587 157 595 157 10 1 91 -162 250 -504z"/>
<path d="M1785 3355 c-33 -7 -108 -32 -167 -54 -58 -23 -136 -45 -173 -50 -80
-12 -199 0 -300 29 -126 36 -152 26 -205 -81 -59 -117 -80 -188 -80 -272 0
-136 59 -257 185 -384 70 -69 98 -89 186 -132 57 -27 131 -57 164 -65 281 -71
572 -12 723 148 81 86 109 155 126 316 44 407 43 440 -8 474 -33 21 -180 64
-261 76 -89 12 -116 12 -190 -5z"/>
<path d="M3080 3031 c-115 -25 -199 -60 -224 -94 l-20 -27 26 -276 c25 -273
26 -276 62 -348 79 -160 241 -258 474 -286 164 -20 367 18 512 97 178 97 302
248 346 423 14 54 15 77 6 137 -13 79 -87 261 -123 300 -28 29 -53 29 -181 -2
-182 -44 -284 -34 -513 50 -127 47 -236 55 -365 26z"/>
</g>
</svg>
